<mxfile host="app.diagrams.net" agent="Mozilla/5.0 (Windows NT 10.0; Win64; x64) AppleWebKit/537.36 (KHTML, like Gecko) Chrome/138.0.0.0 Safari/537.36" version="28.0.5">
  <diagram name="第 1 页" id="jNMhmfJaoY8uXEVMAMHi">
    <mxGraphModel dx="2834" dy="1502" grid="1" gridSize="10" guides="1" tooltips="1" connect="1" arrows="1" fold="1" page="1" pageScale="1" pageWidth="827" pageHeight="1169" math="0" shadow="0">
      <root>
        <mxCell id="0" />
        <mxCell id="1" parent="0" />
        <mxCell id="aSX1v5Rl6s5HI_bAZuwg-16" style="edgeStyle=orthogonalEdgeStyle;rounded=0;orthogonalLoop=1;jettySize=auto;html=1;entryX=0.5;entryY=0;entryDx=0;entryDy=0;" parent="1" source="aSX1v5Rl6s5HI_bAZuwg-1" target="aSX1v5Rl6s5HI_bAZuwg-5" edge="1">
          <mxGeometry relative="1" as="geometry" />
        </mxCell>
        <mxCell id="aSX1v5Rl6s5HI_bAZuwg-1" value="IDLE" style="ellipse;whiteSpace=wrap;html=1;" parent="1" vertex="1">
          <mxGeometry x="370" y="20" width="120" height="80" as="geometry" />
        </mxCell>
        <mxCell id="aSX1v5Rl6s5HI_bAZuwg-2" value="CONV" style="ellipse;whiteSpace=wrap;html=1;" parent="1" vertex="1">
          <mxGeometry x="370" y="320" width="120" height="80" as="geometry" />
        </mxCell>
        <mxCell id="aSX1v5Rl6s5HI_bAZuwg-3" value="L0MEM" style="ellipse;whiteSpace=wrap;html=1;" parent="1" vertex="1">
          <mxGeometry x="310" y="450" width="120" height="80" as="geometry" />
        </mxCell>
        <mxCell id="aSX1v5Rl6s5HI_bAZuwg-5" value="READ_MEM" style="ellipse;whiteSpace=wrap;html=1;" parent="1" vertex="1">
          <mxGeometry x="370" y="170" width="120" height="80" as="geometry" />
        </mxCell>
        <mxCell id="aSX1v5Rl6s5HI_bAZuwg-10" value="" style="edgeStyle=orthogonalEdgeStyle;rounded=0;orthogonalLoop=1;jettySize=auto;html=1;" parent="1" source="aSX1v5Rl6s5HI_bAZuwg-7" target="aSX1v5Rl6s5HI_bAZuwg-9" edge="1">
          <mxGeometry relative="1" as="geometry" />
        </mxCell>
        <mxCell id="aSX1v5Rl6s5HI_bAZuwg-7" value="L1MEM" style="ellipse;whiteSpace=wrap;html=1;" parent="1" vertex="1">
          <mxGeometry x="370" y="644" width="120" height="80" as="geometry" />
        </mxCell>
        <mxCell id="aSX1v5Rl6s5HI_bAZuwg-12" value="" style="edgeStyle=orthogonalEdgeStyle;rounded=0;orthogonalLoop=1;jettySize=auto;html=1;" parent="1" source="aSX1v5Rl6s5HI_bAZuwg-9" target="aSX1v5Rl6s5HI_bAZuwg-11" edge="1">
          <mxGeometry relative="1" as="geometry" />
        </mxCell>
        <mxCell id="aSX1v5Rl6s5HI_bAZuwg-9" value="L2MEM" style="ellipse;whiteSpace=wrap;html=1;" parent="1" vertex="1">
          <mxGeometry x="370" y="800" width="120" height="80" as="geometry" />
        </mxCell>
        <mxCell id="aSX1v5Rl6s5HI_bAZuwg-14" value="" style="edgeStyle=orthogonalEdgeStyle;rounded=0;orthogonalLoop=1;jettySize=auto;html=1;" parent="1" source="aSX1v5Rl6s5HI_bAZuwg-11" target="aSX1v5Rl6s5HI_bAZuwg-13" edge="1">
          <mxGeometry relative="1" as="geometry" />
        </mxCell>
        <mxCell id="aSX1v5Rl6s5HI_bAZuwg-11" value="FINISH" style="ellipse;whiteSpace=wrap;html=1;" parent="1" vertex="1">
          <mxGeometry x="370" y="960" width="120" height="80" as="geometry" />
        </mxCell>
        <mxCell id="aSX1v5Rl6s5HI_bAZuwg-13" value="DELAY" style="ellipse;whiteSpace=wrap;html=1;" parent="1" vertex="1">
          <mxGeometry x="370" y="1120" width="120" height="80" as="geometry" />
        </mxCell>
        <mxCell id="N0QhtL6XpTw6FI1YuQP6-1" value="" style="rounded=0;whiteSpace=wrap;html=1;" vertex="1" parent="1">
          <mxGeometry x="650" y="50" width="600" height="440" as="geometry" />
        </mxCell>
        <mxCell id="N0QhtL6XpTw6FI1YuQP6-2" value="" style="endArrow=classic;html=1;rounded=0;" edge="1" parent="1">
          <mxGeometry width="50" height="50" relative="1" as="geometry">
            <mxPoint x="580" y="110" as="sourcePoint" />
            <mxPoint x="690" y="110" as="targetPoint" />
          </mxGeometry>
        </mxCell>
      </root>
    </mxGraphModel>
  </diagram>
</mxfile>
